<svg width="50" height="51" viewBox="0 0 50 51" fill="none" xmlns="http://www.w3.org/2000/svg">
<rect x="0.262695" y="0.838379" width="49.5455" height="49.5455" rx="6" fill="#EAEBEC"/>
<path d="M26.3519 18.8334L30.9237 23.2223L22.6482 31.1668L18.0765 26.7779L26.3519 18.8334ZM23.2993 32.4307L32.2402 23.8473C32.4235 23.6714 32.5151 23.4631 32.5151 23.2223C32.5151 22.9816 32.4235 22.7733 32.2402 22.5973L27.003 17.5696C26.8294 17.4029 26.6123 17.3196 26.3519 17.3196C26.0915 17.3196 25.8745 17.4029 25.7009 17.5696L16.7599 26.1529C16.5767 26.3288 16.485 26.5371 16.485 26.7779C16.485 27.0186 16.5767 27.227 16.7599 27.4029L21.9972 32.4307C22.1708 32.5973 22.3878 32.6807 22.6482 32.6807C22.9086 32.6807 23.1257 32.5973 23.2993 32.4307ZM36.161 23.5834L23.0388 36.1946C22.682 36.5371 22.2455 36.7084 21.7295 36.7084C21.2135 36.7084 20.7771 36.5371 20.4202 36.1946L18.5973 34.4446C19.1374 33.926 19.4075 33.2964 19.4075 32.5557C19.4075 31.8149 19.1374 31.1853 18.5973 30.6668C18.0572 30.1483 17.4013 29.889 16.6297 29.889C15.8581 29.889 15.2022 30.1483 14.6621 30.6668L12.8537 28.9168C12.4968 28.5742 12.3184 28.1552 12.3184 27.6598C12.3184 27.1645 12.4968 26.7455 12.8537 26.4029L25.9758 13.8196C26.3326 13.477 26.7691 13.3057 27.2851 13.3057C27.8011 13.3057 28.2375 13.477 28.5944 13.8196L30.4029 15.5557C29.8627 16.0742 29.5927 16.7038 29.5927 17.4446C29.5927 18.1853 29.8627 18.8149 30.4029 19.3334C30.943 19.852 31.5988 20.1112 32.3704 20.1112C33.1421 20.1112 33.7979 19.852 34.338 19.3334L36.161 21.0696C36.5178 21.4121 36.6963 21.8311 36.6963 22.3265C36.6963 22.8219 36.5178 23.2409 36.161 23.5834Z" fill="#ABABAB"/>
</svg>
