<svg width="50" height="50" viewBox="0 0 50 50" fill="none" xmlns="http://www.w3.org/2000/svg">
<rect width="49.5455" height="49.5455" rx="6" fill="#ECA094"/>
<path opacity="0.5" d="M33.7972 14.4706C33.5281 13.6586 32.7745 13.0806 31.8864 13.0806H17.0839C16.1958 13.0806 15.4556 13.6586 15.173 14.4706L12.374 22.7144V33.7245C12.374 34.4815 12.9796 35.1008 13.7197 35.1008H15.0654C15.8055 35.1008 16.4111 34.4815 16.4111 33.7245V32.3482H32.5592V33.7245C32.5592 34.4815 33.1648 35.1008 33.9049 35.1008H35.2506C35.9907 35.1008 36.5962 34.4815 36.5962 33.7245V22.7144L33.7972 14.4706ZM17.0839 28.2195C15.967 28.2195 15.0654 27.2974 15.0654 26.1551C15.0654 25.0128 15.967 24.0907 17.0839 24.0907C18.2008 24.0907 19.1024 25.0128 19.1024 26.1551C19.1024 27.2974 18.2008 28.2195 17.0839 28.2195ZM31.8864 28.2195C30.7695 28.2195 29.8678 27.2974 29.8678 26.1551C29.8678 25.0128 30.7695 24.0907 31.8864 24.0907C33.0033 24.0907 33.9049 25.0128 33.9049 26.1551C33.9049 27.2974 33.0033 28.2195 31.8864 28.2195ZM15.0654 21.3381L17.0839 15.145H31.8864L33.9049 21.3381H15.0654Z" fill="#472F2C" fill-opacity="0.72"/>
</svg>
