<svg width="50" height="51" viewBox="0 0 50 51" fill="none" xmlns="http://www.w3.org/2000/svg">
<rect x="0.262695" y="0.929199" width="49.5455" height="49.5455" rx="6" fill="#B2D8D8"/>
<path d="M17.7425 13.8733C22.4397 13.5083 26.2995 13.5145 30.9964 13.8787C33.7708 14.0939 35.878 16.4569 35.878 19.2634V26.7517C35.878 29.0408 34.4829 31.1018 32.3373 31.7296C26.9677 33.3007 22.6919 33.2601 16.6566 31.6464C14.3927 31.041 12.874 28.9195 12.874 26.5382V19.2507C12.874 16.4489 14.9741 14.0885 17.7425 13.8733Z" fill="#66B2B2" stroke="#66B2B2"/>
<path d="M16.4341 34.5451C22.4488 36.1532 26.9245 36.2077 32.5554 34.6763C34.2887 34.205 36.0081 35.4904 35.9504 37.2196C35.9146 38.292 35.1921 39.2162 34.1678 39.4848C26.9726 41.3711 22.1538 41.4943 14.8058 39.5585C13.6784 39.2615 12.914 38.2047 12.9536 37.0204C13.0111 35.297 14.7215 34.0873 16.4341 34.5451Z" fill="#66B2B2" stroke="#66B2B2"/>
</svg>
