<svg width="278" height="58" viewBox="0 0 278 58" fill="none" xmlns="http://www.w3.org/2000/svg">
<mask id="mask0_1426_16896" style="mask-type:alpha" maskUnits="userSpaceOnUse" x="0" y="0" width="278" height="58">
<rect x="277.454" y="57.2524" width="277.455" height="57.2525" transform="rotate(-180 277.454 57.2524)" fill="#66B2B2"/>
</mask>
<g mask="url(#mask0_1426_16896)">
<path fill-rule="evenodd" clip-rule="evenodd" d="M323.696 3.30273L306.464 5.37111C288.906 7.43948 254.441 11.5762 219.651 18.5769C184.861 25.7366 150.396 35.9194 115.605 37.9877C80.8152 40.0561 46.3501 33.851 11.5599 31.9417C-23.2303 29.8734 -57.6953 31.9417 -75.253 32.8964L-92.4855 33.851V58.3532H-75.253C-57.6953 58.3532 -23.2303 58.3532 11.5599 58.3532C46.3501 58.3532 80.8152 58.3532 115.605 58.3532C150.396 58.3532 184.861 58.3532 219.651 58.3532C254.441 58.3532 288.906 58.3532 306.464 58.3532H323.696V3.30273Z" fill="#B2D8D8"/>
<path fill-rule="evenodd" clip-rule="evenodd" d="M276.371 30.1674L263.746 33.7787C251.12 37.39 225.869 44.6126 200.618 42.807C175.367 41.0013 150.116 30.1674 124.865 22.9448C99.6138 15.7222 74.3627 12.1108 49.1117 12.1108C23.8606 12.1108 -1.3904 15.7222 -26.6414 22.0419C-51.8925 28.3617 -77.1435 37.39 -89.7691 41.9042L-102.395 46.4183V57.2522H-89.7691C-77.1435 57.2522 -51.8925 57.2522 -26.6414 57.2522C-1.3904 57.2522 23.8606 57.2522 49.1117 57.2522C74.3627 57.2522 99.6138 57.2522 124.865 57.2522C150.116 57.2522 175.367 57.2522 200.618 57.2522C225.869 57.2522 251.12 57.2522 263.746 57.2522H276.371V30.1674Z" fill="#006666" fill-opacity="0.7"/>
</g>
</svg>
