<svg width="278" height="58" viewBox="0 0 278 58" fill="none" xmlns="http://www.w3.org/2000/svg">
<mask id="mask0_1426_16901" style="mask-type:alpha" maskUnits="userSpaceOnUse" x="0" y="0" width="278" height="58">
<rect width="277.455" height="57.2525" fill="#66B2B2"/>
</mask>
<g mask="url(#mask0_1426_16901)">
<path fill-rule="evenodd" clip-rule="evenodd" d="M0 45.1411L15.5913 43.445C31.4768 41.749 62.6595 38.3569 94.1364 32.6163C125.613 26.7453 156.796 18.3955 188.273 16.6994C219.75 15.0034 250.932 20.0916 282.409 21.6572C313.886 23.3532 345.069 21.6572 360.954 20.8744L376.545 20.0916V-0.00027746H360.954C345.069 -0.00027746 313.886 -0.00027746 282.409 -0.00027746C250.932 -0.00027746 219.75 -0.00027746 188.273 -0.00027746C156.796 -0.00027746 125.613 -0.00027746 94.1364 -0.00027746C62.6595 -0.00027746 31.4768 -0.00027746 15.5913 -0.00027746H0V45.1411Z" fill="#66B2B2"/>
<path fill-rule="evenodd" clip-rule="evenodd" d="M0 27.0846L12.5515 23.4732C25.103 19.8619 50.2061 12.6393 75.3091 14.445C100.412 16.2506 125.515 27.0846 150.618 34.3072C175.721 41.5298 200.824 45.1411 225.927 45.1411C251.03 45.1411 276.133 41.5298 301.236 35.21C326.339 28.8902 351.442 19.8619 363.994 15.3478L376.545 10.8337V-0.00027746H363.994C351.442 -0.00027746 326.339 -0.00027746 301.236 -0.00027746C276.133 -0.00027746 251.03 -0.00027746 225.927 -0.00027746C200.824 -0.00027746 175.721 -0.00027746 150.618 -0.00027746C125.515 -0.00027746 100.412 -0.00027746 75.3091 -0.00027746C50.2061 -0.00027746 25.103 -0.00027746 12.5515 -0.00027746H0V27.0846Z" fill="#008080" fill-opacity="0.6"/>
</g>
</svg>
