<svg width="278" height="58" viewBox="0 0 278 58" fill="none" xmlns="http://www.w3.org/2000/svg">
<mask id="mask0_1426_16891" style="mask-type:alpha" maskUnits="userSpaceOnUse" x="0" y="0" width="278" height="58">
<rect width="277.455" height="57.2525" fill="#66B2B2"/>
</mask>
<g mask="url(#mask0_1426_16891)">
<path fill-rule="evenodd" clip-rule="evenodd" d="M-5.50391 44.04L7.02494 42.344C19.7902 40.6479 44.8479 37.2558 70.1419 31.5153C95.436 25.6443 120.494 17.2944 145.788 15.5984C171.082 13.9023 196.14 18.9905 221.434 20.5561C246.728 22.2521 271.785 20.5561 284.551 19.7733L297.079 18.9905V-1.10135H284.551C271.785 -1.10135 246.728 -1.10135 221.434 -1.10135C196.14 -1.10135 171.082 -1.10135 145.788 -1.10135C120.494 -1.10135 95.436 -1.10135 70.1419 -1.10135C44.8479 -1.10135 19.7902 -1.10135 7.02494 -1.10135H-5.50391V44.04Z" fill="#B2D8D8"/>
<path fill-rule="evenodd" clip-rule="evenodd" d="M-5.50391 25.9835L4.58221 22.3722C14.6683 18.7609 34.8405 11.5382 55.0128 13.3439C75.185 15.1495 95.3572 25.9835 115.529 33.2061C135.702 40.4287 155.874 44.04 176.046 44.04C196.218 44.04 216.391 40.4287 236.563 34.1089C256.735 27.7891 276.907 18.7609 286.993 14.2467L297.079 9.73258V-1.10135H286.993C276.907 -1.10135 256.735 -1.10135 236.563 -1.10135C216.391 -1.10135 196.218 -1.10135 176.046 -1.10135C155.874 -1.10135 135.702 -1.10135 115.529 -1.10135C95.3572 -1.10135 75.185 -1.10135 55.0128 -1.10135C34.8405 -1.10135 14.6683 -1.10135 4.58221 -1.10135H-5.50391V25.9835Z" fill="#008080" fill-opacity="0.6"/>
</g>
</svg>
