<svg width="44" height="26" viewBox="0 0 44 26" fill="none" xmlns="http://www.w3.org/2000/svg">
<path d="M16.4608 15.8423L8.40376 0.643537C8.19508 0.248383 7.76572 0 7.29799 0H1.23779C0.304717 0 -0.292549 0.937078 0.147604 1.71158L12.1049 22.7902C12.3196 23.1696 12.7393 23.4055 13.1951 23.4055H16.5904V16.3616C16.5904 16.181 16.546 16.0037 16.4608 15.8423Z" fill="#66B2B2"/>
<path d="M43.3583 16.654C43.1772 16.5152 43.0285 16.3413 42.9409 16.137L39.5085 8.20339C39.3873 7.9234 39.1331 7.7326 38.8428 7.66937C38.7469 7.63889 38.6461 7.62083 38.5394 7.62083H32.0702C31.3363 7.62083 30.7402 8.18082 30.7402 8.8729V12.7917C30.7402 13.4827 31.3351 14.0438 32.0702 14.0438H33.1832C33.7229 14.0438 34.2098 14.3509 34.4137 14.8217C34.7711 15.6458 34.1283 16.5479 33.1832 16.5479H25.9141C24.9103 16.5479 24.2674 15.5397 24.7412 14.7065L32.0007 1.90916C32.4912 1.04433 31.8256 0 30.7846 0H25.0098C24.4869 0 24.0096 0.277738 23.7769 0.718052L15.7354 15.8863C15.6395 16.0658 15.5903 16.2645 15.5903 16.4655V23.4055H20.1658C20.1658 24.8382 21.3939 26 22.9098 26C24.4258 26 25.6539 24.8382 25.6539 23.4055H33.9172C33.9172 24.8382 35.1453 26 36.6613 26C38.1772 26 39.4053 24.8382 39.4053 23.4055H42.364C43.098 23.4055 43.6941 22.8455 43.6941 22.1535V17.3134C43.6941 17.0458 43.5634 16.8087 43.3607 16.6529L43.3583 16.654Z" fill="#66B2B2"/>
</svg>
